<svg width="20" height="18" viewBox="0 0 20 18" fill="none" xmlns="http://www.w3.org/2000/svg">
<path d="M9.85675 2.45095e-07C5.32974 -0.000581248 1.47068 3.28255 0.745869 7.75115C0.0210623 12.2198 2.64453 16.5543 6.93963 17.9847C7.40222 18.068 7.56783 17.7839 7.56783 17.5397C7.56783 17.3204 7.56043 16.7394 7.55766 15.9669C4.99026 16.522 4.4481 14.729 4.4481 14.729C4.27908 14.171 3.91573 13.6921 3.42392 13.3791C2.59125 12.8064 3.48776 12.8194 3.48776 12.8194C4.0805 12.9007 4.60219 13.2519 4.90052 13.7705C5.15303 14.2296 5.57846 14.5689 6.08226 14.7129C6.58607 14.8569 7.12653 14.7938 7.58356 14.5375C7.62651 14.0693 7.83478 13.6318 8.17106 13.3033C6.12269 13.071 3.96885 12.2791 3.96885 8.74209C3.95748 7.82727 4.2972 6.94288 4.9181 6.27092C4.63716 5.47462 4.67025 4.60119 5.01061 3.82842C5.01061 3.82842 5.785 3.57955 7.54748 4.77304C9.05909 4.35856 10.6544 4.35856 12.166 4.77304C13.9294 3.57862 14.7029 3.82842 14.7029 3.82842C15.0448 4.60082 15.0779 5.47486 14.7954 6.27092C15.4186 6.94282 15.758 7.82952 15.7428 8.74579C15.7428 12.292 13.5871 13.071 11.5313 13.2996C11.9748 13.753 12.2022 14.3749 12.1558 15.0075C12.1558 16.2417 12.1447 17.2372 12.1447 17.5397C12.1447 17.7867 12.3094 18.0735 12.7803 17.9829C17.0736 16.5501 19.6943 12.2152 18.968 7.74781C18.2417 3.28039 14.3828 -0.00103544 9.85675 2.45095e-07Z" fill="black"/>
</svg>
