<svg width="19" height="18" viewBox="0 0 19 18" fill="none" xmlns="http://www.w3.org/2000/svg">
    <path
        d="M9.45567 18C7.00058 18 6.71116 17.987 5.75307 17.9451C5.00594 17.9205 4.26848 17.7687 3.57243 17.496C2.36815 17.0273 1.41589 16.0747 0.947685 14.8703C0.685515 14.1717 0.54411 13.4336 0.529521 12.6876C0.473633 11.7315 0.473633 11.4182 0.473633 8.98204C0.473633 6.51996 0.486607 6.23253 0.529521 5.27944C0.544429 4.53445 0.68583 3.79741 0.947685 3.0998C1.41538 1.89374 2.36919 0.940292 3.57543 0.473054C4.27268 0.209783 5.0099 0.0680083 5.75507 0.0538922C6.70816 0 7.02153 0 9.45567 0C11.9307 0 12.2151 0.0129741 13.1583 0.0538922C13.9054 0.0681303 14.6445 0.20989 15.3439 0.473054C16.5498 0.940821 17.5034 1.89409 17.9716 3.0998C18.2382 3.80758 18.3804 4.55614 18.3918 5.31237C18.4477 6.26846 18.4477 6.58084 18.4477 9.01597C18.4477 11.4511 18.4337 11.7705 18.3918 12.7156C18.3769 13.4623 18.2352 14.201 17.9726 14.9002C17.5032 16.1055 16.5495 17.0585 15.3439 17.5269C14.6455 17.7886 13.9079 17.93 13.1623 17.9451C12.2092 18 11.8968 18 9.45567 18ZM9.42173 1.57984C6.98062 1.57984 6.72712 1.59182 5.77403 1.63473C5.20515 1.64227 4.64177 1.74725 4.10836 1.94511C3.32069 2.24652 2.69741 2.86726 2.39279 3.65369C2.19341 4.19291 2.08841 4.76245 2.08241 5.33732C2.02952 6.30439 2.02952 6.55788 2.02952 8.98204C2.02952 11.3772 2.0385 11.6677 2.08241 12.6287C2.09135 13.1978 2.19628 13.7613 2.39279 14.2954C2.69786 15.0813 3.32103 15.7016 4.10836 16.003C4.64141 16.2022 5.20502 16.3072 5.77403 16.3134C6.7401 16.3693 6.99459 16.3693 9.42173 16.3693C11.8698 16.3693 12.1233 16.3573 13.0684 16.3134C13.6377 16.3064 14.2015 16.2014 14.7351 16.003C15.518 15.699 16.1372 15.0801 16.4417 14.2974C16.6407 13.7577 16.7457 13.1879 16.7521 12.6128H16.763C16.806 11.6587 16.806 11.4042 16.806 8.96607C16.806 6.52794 16.795 6.27146 16.7521 5.31836C16.7431 4.74995 16.6382 4.18714 16.4417 3.65369C16.1379 2.86983 15.5186 2.24979 14.7351 1.94511C14.2016 1.74625 13.6377 1.64124 13.0684 1.63473C12.1034 1.57984 11.8509 1.57984 9.42173 1.57984ZM9.45567 13.5918C7.58939 13.593 5.90618 12.4698 5.19106 10.746C4.47593 9.02213 4.86975 7.03726 6.18883 5.71703C7.50792 4.3968 9.49245 4.00127 11.2169 4.7149C12.9413 5.42854 14.066 7.11077 14.0664 8.97704C14.0637 11.523 12.0016 13.5869 9.45567 13.5918ZM9.45567 5.98104C7.80212 5.98104 6.46165 7.3215 6.46165 8.97505C6.46165 10.6286 7.80212 11.9691 9.45567 11.9691C11.1092 11.9691 12.4497 10.6286 12.4497 8.97505C12.4458 7.3231 11.1076 5.98488 9.45567 5.98104ZM14.2461 5.26946C13.6527 5.26726 13.1731 4.78502 13.1742 4.19162C13.1753 3.59823 13.6567 3.11777 14.2501 3.11777C14.8435 3.11777 15.3248 3.59822 15.3259 4.19162C15.3262 4.47791 15.2124 4.75252 15.0098 4.95477C14.8072 5.15702 14.5324 5.27026 14.2461 5.26946Z"
        fill="black" />
</svg>