<svg width="23" height="18" viewBox="0 0 23 18" fill="none" xmlns="http://www.w3.org/2000/svg">
<path d="M19.5493 2.83822C20.499 2.2705 21.2095 1.37656 21.5483 0.323315C20.656 0.852782 19.6797 1.22575 18.6616 1.4261C17.2501 -0.0670284 15.0137 -0.430388 13.2021 0.539058C11.3905 1.5085 10.4521 3.57075 10.9113 5.57347C7.25616 5.38996 3.85072 3.66337 1.54242 0.82333C0.337764 2.90117 0.953368 5.55735 2.94924 6.89343C2.22751 6.87023 1.52179 6.67482 0.890917 6.3235C0.890917 6.34256 0.890917 6.36163 0.890917 6.3807C0.891334 8.54512 2.41678 10.4095 4.53827 10.8385C3.86883 11.0206 3.16663 11.0474 2.48524 10.9169C3.08187 12.7678 4.7878 14.0359 6.73219 14.0737C5.1218 15.3377 3.13301 16.0231 1.08584 16.0198C0.722978 16.0203 0.360403 15.9994 0 15.9573C2.07886 17.2931 4.49841 18.0022 6.96949 17.9997C10.4074 18.0233 13.7112 16.668 16.1421 14.2369C18.573 11.8058 19.9281 8.50179 19.9042 5.06392C19.9042 4.86688 19.8996 4.6709 19.8904 4.47598C20.7808 3.83253 21.5492 3.03542 22.1596 2.1221C21.3301 2.48976 20.4503 2.73114 19.5493 2.83822Z" fill="#1DA1F2"/>
</svg>
